<svg width="96" height="96" viewBox="0 0 96 96" fill="none" xmlns="http://www.w3.org/2000/svg">
<rect opacity="0.01" width="96" height="96" fill="#D8D8D8"/>
<ellipse cx="49" cy="86" rx="45" ry="5" fill="#F2F2F2"/>
<path d="M48.2695 15.667C48.7509 15.5643 49.2491 15.5643 49.7305 15.667L75.7305 21.2139C77.3456 21.5585 78.5 22.9852 78.5 24.6367V41.0986C78.5 56.1215 69.5345 69.6952 55.7168 75.5908L50.373 77.8701C49.4957 78.2443 48.5033 78.2444 47.626 77.8701L42.2832 75.5908C28.4655 69.6952 19.5 56.1215 19.5 41.0986V24.6367C19.5 22.9852 20.6544 21.5585 22.2695 21.2139L48.2695 15.667Z" fill="white" stroke="#D8D8D8"/>
<path d="M50.5 46.5V62C50.5 62.8284 49.8284 63.5 49 63.5C48.1716 63.5 47.5 62.8284 47.5 62V46.5H50.5Z" fill="#FAFAFA" stroke="#D8D8D8"/>
<rect x="50" y="56" width="5" height="1" rx="0.5" fill="#D8D8D8"/>
<rect x="50" y="52" width="5" height="1" rx="0.5" fill="#D8D8D8"/>
<circle cx="49" cy="39" r="8.5" fill="#FAFAFA" stroke="#D8D8D8"/>
<circle cx="49" cy="39" r="4.5" fill="white" stroke="#D8D8D8"/>
<circle opacity="0.5" cx="88" cy="17" r="3" fill="#D8D8D8"/>
<circle opacity="0.3" cx="80" cy="13" r="2" fill="#D8D8D8"/>
<path opacity="0.3" fill-rule="evenodd" clip-rule="evenodd" d="M86.66 5.03998C85.8316 5.03998 85.16 5.71155 85.16 6.53998C85.16 7.36841 85.8316 8.03998 86.66 8.03998C87.4885 8.03998 88.16 7.36841 88.16 6.53998C88.16 5.71155 87.4885 5.03998 86.66 5.03998ZM86.66 4.03998C88.0407 4.03998 89.16 5.15927 89.16 6.53998C89.16 7.92069 88.0407 9.03998 86.66 9.03998C85.2793 9.03998 84.16 7.92069 84.16 6.53998C84.16 5.15927 85.2793 4.03998 86.66 4.03998Z" fill="#D8D8D8"/>
</svg>
