<svg width="16" height="16" viewBox="0 0 16 16" fill="none" xmlns="http://www.w3.org/2000/svg">
<path fill-rule="evenodd" clip-rule="evenodd" d="M3 9.73924C3.29747 9.73924 3.56461 9.86913 3.74779 10.0753L3.81673 10.1621C4.19265 9.99981 4.66721 9.94994 5.27118 10.0057L5.68638 10.052L5.90417 10.0707L6.16573 10.088L7.80948 10.1684L8.20107 10.1945L8.54364 10.2247L8.85206 10.2608C10.0462 10.4204 10.3458 11.5709 9.74429 12.1717C9.95485 12.1944 10.1706 12.1824 10.3821 12.1353L10.5399 12.0933L13.4763 11.1832C13.8899 11.055 14.3362 11.1758 14.6287 11.4852L14.7116 11.5835L14.7781 11.6863C14.9963 12.081 14.8811 12.57 14.5258 12.8288L14.432 12.8886L10.2544 15.1986C9.74361 15.4811 9.15008 15.5759 8.57668 15.4666L7.02176 15.1782C5.97358 14.9905 5.30587 14.8888 5.04879 14.8761L3.99085 14.8751C3.92456 15.3631 3.5062 15.7392 3 15.7392H2C1.44772 15.7392 1 15.2915 1 14.7392V10.7392C1 10.187 1.44772 9.73924 2 9.73924H3ZM4.07324 11.1584L4 11.2132V13.8742L5.06296 13.8761L5.24291 13.8892C5.41678 13.9058 5.65066 13.9367 5.94647 13.9821L6.54625 14.0796L7.20971 14.1957L8.76384 14.4843C9.05874 14.5405 9.36251 14.5067 9.63629 14.3892L9.7705 14.3235L13.6581 12.1738L10.836 13.0485C10.0205 13.3012 9.13955 13.1949 8.41076 12.763L8.267 12.6702L7.92555 12.7239C7.57482 12.7747 7.19768 12.8178 6.79396 12.8535C6.51888 12.8777 6.27621 12.6744 6.25194 12.3993C6.22766 12.1243 6.43097 11.8816 6.70604 11.8573C7.59158 11.7792 8.33293 11.6643 8.92807 11.5141C9.1186 11.466 9.10806 11.3039 8.71958 11.2519L8.43583 11.2189L8.11465 11.1908C7.99988 11.1821 7.87665 11.174 7.74275 11.1662L6.09056 11.0853L5.69325 11.057L5.17134 11.0006C4.6065 10.9484 4.26976 11.0131 4.07324 11.1584ZM3 10.7392H2V14.7392H3V10.7392ZM8.5 0.26123C10.9853 0.26123 13 2.27595 13 4.76123C13 7.24651 10.9853 9.26123 8.5 9.26123C6.01472 9.26123 4 7.24651 4 4.76123C4 2.27595 6.01472 0.26123 8.5 0.26123ZM8.5 1.26123C6.567 1.26123 5 2.82823 5 4.76123C5 6.69423 6.567 8.26123 8.5 8.26123C10.433 8.26123 12 6.69423 12 4.76123C12 2.82823 10.433 1.26123 8.5 1.26123ZM8.28801 1.97217L8.78773 1.97363L8.78482 2.53654C9.45937 2.60071 9.80611 2.98717 9.80611 2.98717L9.47685 3.62738L9.40731 3.56809C9.27243 3.46131 8.95419 3.24748 8.56628 3.24529C8.21808 3.24383 7.94273 3.45675 7.94127 3.763C7.93835 4.49071 9.8979 4.36967 9.89208 5.73904C9.89208 6.36175 9.47685 6.89258 8.76734 6.98738L8.76442 7.55029L8.2647 7.54883L8.26762 6.98592C7.51731 6.89113 7.10792 6.4055 7.10792 6.4055L7.51731 5.81342L7.58454 5.87555C7.72977 6.00113 8.09615 6.27347 8.54443 6.27571C8.85912 6.27863 9.14322 6.108 9.14468 5.75217C9.14759 5.01717 7.18222 5.08425 7.18805 3.77029C7.19096 3.13883 7.63969 2.65175 8.2851 2.54529L8.28801 1.97217Z" fill="currentColor"/>
</svg>
