<svg width="16" height="16" viewBox="0 0 16 16" fill="none" xmlns="http://www.w3.org/2000/svg">
<g transform="translate(-8 -8)">
<path fill-rule="evenodd" clip-rule="evenodd" d="M10.7181 8H9.28194C8.83618 8 8.67454 8.04641 8.51158 8.13357C8.34861 8.22072 8.22072 8.34861 8.13357 8.51158C8.04641 8.67454 8 8.83618 8 9.28194V10.7181C8 11.1638 8.04641 11.3255 8.13357 11.4884C8.22072 11.6514 8.34861 11.7793 8.51158 11.8664C8.67454 11.9536 8.83618 12 9.28194 12H10.7181C11.1638 12 11.3255 11.9536 11.4884 11.8664C11.6514 11.7793 11.7793 11.6514 11.8664 11.4884C11.9536 11.3255 12 11.1638 12 10.7181V9.28194C12 8.83618 11.9536 8.67454 11.8664 8.51158C11.7793 8.34861 11.6514 8.22072 11.4884 8.13357C11.3255 8.04641 11.1638 8 10.7181 8ZM9 10.7181V9.28194C9 9.10095 9.00221 9.03675 9.0074 9.0074C9.03675 9.00221 9.10095 9 9.28194 9H10.7181C10.8991 9 10.9632 9.00221 10.9926 9.0074C10.9978 9.03675 11 9.10095 11 9.28194V10.7181C11 10.8991 10.9978 10.9632 10.9926 10.9926C10.9632 10.9978 10.8991 11 10.7181 11H9.28194C9.10095 11 9.03675 10.9978 9.0074 10.9926C9.00221 10.9632 9 10.8991 9 10.7181ZM10.7181 14H9.28194C8.83618 14 8.67454 14.0464 8.51158 14.1336C8.34861 14.2207 8.22072 14.3486 8.13357 14.5116C8.04641 14.6745 8 14.8362 8 15.2819V16.7181C8 17.1638 8.04641 17.3255 8.13357 17.4884C8.22072 17.6514 8.34861 17.7793 8.51158 17.8664C8.67454 17.9536 8.83618 18 9.28194 18H10.7181C11.1638 18 11.3255 17.9536 11.4884 17.8664C11.6514 17.7793 11.7793 17.6514 11.8664 17.4884C11.9536 17.3255 12 17.1638 12 16.7181V15.2819C12 14.8362 11.9536 14.6745 11.8664 14.5116C11.7793 14.3486 11.6514 14.2207 11.4884 14.1336C11.3255 14.0464 11.1638 14 10.7181 14ZM9 16.7181V15.2819C9 15.1009 9.00221 15.0367 9.0074 15.0074C9.03675 15.0022 9.10095 15 9.28194 15H10.7181C10.8991 15 10.9632 15.0022 10.9926 15.0074C10.9978 15.0367 11 15.1009 11 15.2819V16.7181C11 16.8991 10.9978 16.9633 10.9926 16.9926C10.9632 16.9978 10.8991 17 10.7181 17H9.28194C9.10095 17 9.03675 16.9978 9.0074 16.9926C9.00221 16.9633 9 16.8991 9 16.7181ZM9.28194 20H10.7181C11.1638 20 11.3255 20.0464 11.4884 20.1336C11.6514 20.2207 11.7793 20.3486 11.8664 20.5116C11.9536 20.6745 12 20.8362 12 21.2819V22.7181C12 23.1638 11.9536 23.3255 11.8664 23.4884C11.7793 23.6514 11.6514 23.7793 11.4884 23.8664C11.3255 23.9536 11.1638 24 10.7181 24H9.28194C8.83618 24 8.67454 23.9536 8.51158 23.8664C8.34861 23.7793 8.22072 23.6514 8.13357 23.4884C8.04641 23.3255 8 23.1638 8 22.7181V21.2819C8 20.8362 8.04641 20.6745 8.13357 20.5116C8.22072 20.3486 8.34861 20.2207 8.51158 20.1336C8.67454 20.0464 8.83618 20 9.28194 20ZM9 21.2819V22.7181C9 22.8991 9.00221 22.9633 9.0074 22.9926C9.03675 22.9978 9.10095 23 9.28194 23H10.7181C10.8991 23 10.9632 22.9978 10.9926 22.9926C10.9978 22.9633 11 22.8991 11 22.7181V21.2819C11 21.1009 10.9978 21.0367 10.9926 21.0074C10.9632 21.0022 10.8991 21 10.7181 21H9.28194C9.10095 21 9.03675 21.0022 9.0074 21.0074C9.00221 21.0367 9 21.1009 9 21.2819ZM16.7181 8H15.2819C14.8362 8 14.6745 8.04641 14.5116 8.13357C14.3486 8.22072 14.2207 8.34861 14.1336 8.51158C14.0464 8.67454 14 8.83618 14 9.28194V10.7181C14 11.1638 14.0464 11.3255 14.1336 11.4884C14.2207 11.6514 14.3486 11.7793 14.5116 11.8664C14.6745 11.9536 14.8362 12 15.2819 12H16.7181C17.1638 12 17.3255 11.9536 17.4884 11.8664C17.6514 11.7793 17.7793 11.6514 17.8664 11.4884C17.9536 11.3255 18 11.1638 18 10.7181V9.28194C18 8.83618 17.9536 8.67454 17.8664 8.51158C17.7793 8.34861 17.6514 8.22072 17.4884 8.13357C17.3255 8.04641 17.1638 8 16.7181 8ZM15 10.7181V9.28194C15 9.10095 15.0022 9.03675 15.0074 9.0074C15.0367 9.00221 15.1009 9 15.2819 9H16.7181C16.8991 9 16.9633 9.00221 16.9926 9.0074C16.9978 9.03675 17 9.10095 17 9.28194V10.7181C17 10.8991 16.9978 10.9632 16.9926 10.9926C16.9633 10.9978 16.8991 11 16.7181 11H15.2819C15.1009 11 15.0367 10.9978 15.0074 10.9926C15.0022 10.9632 15 10.8991 15 10.7181ZM15.2819 14H16.7181C17.1638 14 17.3255 14.0464 17.4884 14.1336C17.6514 14.2207 17.7793 14.3486 17.8664 14.5116C17.9536 14.6745 18 14.8362 18 15.2819V16.7181C18 17.1638 17.9536 17.3255 17.8664 17.4884C17.7793 17.6514 17.6514 17.7793 17.4884 17.8664C17.3255 17.9536 17.1638 18 16.7181 18H15.2819C14.8362 18 14.6745 17.9536 14.5116 17.8664C14.3486 17.7793 14.2207 17.6514 14.1336 17.4884C14.0464 17.3255 14 17.1638 14 16.7181V15.2819C14 14.8362 14.0464 14.6745 14.1336 14.5116C14.2207 14.3486 14.3486 14.2207 14.5116 14.1336C14.6745 14.0464 14.8362 14 15.2819 14ZM15 15.2819V16.7181C15 16.8991 15.0022 16.9633 15.0074 16.9926C15.0367 16.9978 15.1009 17 15.2819 17H16.7181C16.8991 17 16.9633 16.9978 16.9926 16.9926C16.9978 16.9633 17 16.8991 17 16.7181V15.2819C17 15.1009 16.9978 15.0367 16.9926 15.0074C16.9633 15.0022 16.8991 15 16.7181 15H15.2819C15.1009 15 15.0367 15.0022 15.0074 15.0074C15.0022 15.0367 15 15.1009 15 15.2819ZM16.7181 20H15.2819C14.8362 20 14.6745 20.0464 14.5116 20.1336C14.3486 20.2207 14.2207 20.3486 14.1336 20.5116C14.0464 20.6745 14 20.8362 14 21.2819V22.7181C14 23.1638 14.0464 23.3255 14.1336 23.4884C14.2207 23.6514 14.3486 23.7793 14.5116 23.8664C14.6745 23.9536 14.8362 24 15.2819 24H16.7181C17.1638 24 17.3255 23.9536 17.4884 23.8664C17.6514 23.7793 17.7793 23.6514 17.8664 23.4884C17.9536 23.3255 18 23.1638 18 22.7181V21.2819C18 20.8362 17.9536 20.6745 17.8664 20.5116C17.7793 20.3486 17.6514 20.2207 17.4884 20.1336C17.3255 20.0464 17.1638 20 16.7181 20ZM15 22.7181V21.2819C15 21.1009 15.0022 21.0367 15.0074 21.0074C15.0367 21.0022 15.1009 21 15.2819 21H16.7181C16.8991 21 16.9633 21.0022 16.9926 21.0074C16.9978 21.0367 17 21.1009 17 21.2819V22.7181C17 22.8991 16.9978 22.9633 16.9926 22.9926C16.9633 22.9978 16.8991 23 16.7181 23H15.2819C15.1009 23 15.0367 22.9978 15.0074 22.9926C15.0022 22.9633 15 22.8991 15 22.7181ZM21.2819 8H22.7181C23.1638 8 23.3255 8.04641 23.4884 8.13357C23.6514 8.22072 23.7793 8.34861 23.8664 8.51158C23.9536 8.67454 24 8.83618 24 9.28194V10.7181C24 11.1638 23.9536 11.3255 23.8664 11.4884C23.7793 11.6514 23.6514 11.7793 23.4884 11.8664C23.3255 11.9536 23.1638 12 22.7181 12H21.2819C20.8362 12 20.6745 11.9536 20.5116 11.8664C20.3486 11.7793 20.2207 11.6514 20.1336 11.4884C20.0464 11.3255 20 11.1638 20 10.7181V9.28194C20 8.83618 20.0464 8.67454 20.1336 8.51158C20.2207 8.34861 20.3486 8.22072 20.5116 8.13357C20.6745 8.04641 20.8362 8 21.2819 8ZM21 9.28194V10.7181C21 10.8991 21.0022 10.9632 21.0074 10.9926C21.0367 10.9978 21.1009 11 21.2819 11H22.7181C22.8991 11 22.9633 10.9978 22.9926 10.9926C22.9978 10.9632 23 10.8991 23 10.7181V9.28194C23 9.10095 22.9978 9.03675 22.9926 9.0074C22.9633 9.00221 22.8991 9 22.7181 9H21.2819C21.1009 9 21.0367 9.00221 21.0074 9.0074C21.0022 9.03675 21 9.10095 21 9.28194ZM22.7181 14H21.2819C20.8362 14 20.6745 14.0464 20.5116 14.1336C20.3486 14.2207 20.2207 14.3486 20.1336 14.5116C20.0464 14.6745 20 14.8362 20 15.2819V16.7181C20 17.1638 20.0464 17.3255 20.1336 17.4884C20.2207 17.6514 20.3486 17.7793 20.5116 17.8664C20.6745 17.9536 20.8362 18 21.2819 18H22.7181C23.1638 18 23.3255 17.9536 23.4884 17.8664C23.6514 17.7793 23.7793 17.6514 23.8664 17.4884C23.9536 17.3255 24 17.1638 24 16.7181V15.2819C24 14.8362 23.9536 14.6745 23.8664 14.5116C23.7793 14.3486 23.6514 14.2207 23.4884 14.1336C23.3255 14.0464 23.1638 14 22.7181 14ZM21 16.7181V15.2819C21 15.1009 21.0022 15.0367 21.0074 15.0074C21.0367 15.0022 21.1009 15 21.2819 15H22.7181C22.8991 15 22.9633 15.0022 22.9926 15.0074C22.9978 15.0367 23 15.1009 23 15.2819V16.7181C23 16.8991 22.9978 16.9633 22.9926 16.9926C22.9633 16.9978 22.8991 17 22.7181 17H21.2819C21.1009 17 21.0367 16.9978 21.0074 16.9926C21.0022 16.9633 21 16.8991 21 16.7181ZM21.2819 20H22.7181C23.1638 20 23.3255 20.0464 23.4884 20.1336C23.6514 20.2207 23.7793 20.3486 23.8664 20.5116C23.9536 20.6745 24 20.8362 24 21.2819V22.7181C24 23.1638 23.9536 23.3255 23.8664 23.4884C23.7793 23.6514 23.6514 23.7793 23.4884 23.8664C23.3255 23.9536 23.1638 24 22.7181 24H21.2819C20.8362 24 20.6745 23.9536 20.5116 23.8664C20.3486 23.7793 20.2207 23.6514 20.1336 23.4884C20.0464 23.3255 20 23.1638 20 22.7181V21.2819C20 20.8362 20.0464 20.6745 20.1336 20.5116C20.2207 20.3486 20.3486 20.2207 20.5116 20.1336C20.6745 20.0464 20.8362 20 21.2819 20ZM21 21.2819V22.7181C21 22.8991 21.0022 22.9633 21.0074 22.9926C21.0367 22.9978 21.1009 23 21.2819 23H22.7181C22.8991 23 22.9633 22.9978 22.9926 22.9926C22.9978 22.9633 23 22.8991 23 22.7181V21.2819C23 21.1009 22.9978 21.0367 22.9926 21.0074C22.9633 21.0022 22.8991 21 22.7181 21H21.2819C21.1009 21 21.0367 21.0022 21.0074 21.0074C21.0022 21.0367 21 21.1009 21 21.2819Z" fill="currentColor"/>
</g>
</svg>
